# xmcd
#
# Track frame offsets:
#	166
#	2717
#	17892
#	33447
#	47407
#	66863
#	78737
#	94200
#	114987
#	132450
#	153252
#	154944
#	173066
#	179716
#	188154
#	204801
#	223191
#	243008
#	258139
#
# Disc length: 3683 seconds
#
# Revision: 0
# Processed by: cddbd v1.5.2PL0 Copyright (c) Steve Scherf et al.
# Submitted via: EasyCDDAExtractor 11.0.3.1
#
DISCID=fb0e6113
DTITLE=Onitsha - Church Girl
DYEAR=2007
DGENRE=Gospel
TTITLE0=O (Intro)
TTITLE1=Come On
TTITLE2=Gotta Believe Me
TTITLE3=Lay Your Troubles Down
TTITLE4=My Life
TTITLE5=Don't Give Up
TTITLE6=He Is
TTITLE7=This One
TTITLE8=Come By Here
TTITLE9=God Is On Your Side
TTITLE10=This Joy (Interlude)
TTITLE11=This Joy
TTITLE12=Search Me Lord
TTITLE13=Search Me Lord
TTITLE14=It's Over Now
TTITLE15=So Good
TTITLE16=My Story
TTITLE17=This Is Serious
TTITLE18=This One (Alternate Take)
EXTD=
EXTT0=
EXTT1=
EXTT2=
EXTT3=
EXTT4=
EXTT5=
EXTT6=
EXTT7=
EXTT8=
EXTT9=
EXTT10=
EXTT11=
EXTT12=
EXTT13=
EXTT14=
EXTT15=
EXTT16=
EXTT17=
EXTT18=
PLAYORDER=
